%TF.GenerationSoftware,KiCad,Pcbnew,(6.0.6)*%
%TF.CreationDate,2022-07-21T19:51:41-07:00*%
%TF.ProjectId,HPS-Rect-Clock,4850532d-5265-4637-942d-436c6f636b2e,rev?*%
%TF.SameCoordinates,PX4b93a80PY8b0aba0*%
%TF.FileFunction,Soldermask,Top*%
%TF.FilePolarity,Negative*%
%FSLAX46Y46*%
G04 Gerber Fmt 4.6, Leading zero omitted, Abs format (unit mm)*
G04 Created by KiCad (PCBNEW (6.0.6)) date 2022-07-21 19:51:41*
%MOMM*%
%LPD*%
G01*
G04 APERTURE LIST*
G04 Aperture macros list*
%AMRoundRect*
0 Rectangle with rounded corners*
0 $1 Rounding radius*
0 $2 $3 $4 $5 $6 $7 $8 $9 X,Y pos of 4 corners*
0 Add a 4 corners polygon primitive as box body*
4,1,4,$2,$3,$4,$5,$6,$7,$8,$9,$2,$3,0*
0 Add four circle primitives for the rounded corners*
1,1,$1+$1,$2,$3*
1,1,$1+$1,$4,$5*
1,1,$1+$1,$6,$7*
1,1,$1+$1,$8,$9*
0 Add four rect primitives between the rounded corners*
20,1,$1+$1,$2,$3,$4,$5,0*
20,1,$1+$1,$4,$5,$6,$7,0*
20,1,$1+$1,$6,$7,$8,$9,0*
20,1,$1+$1,$8,$9,$2,$3,0*%
G04 Aperture macros list end*
%ADD10R,1.150000X1.400000*%
%ADD11R,1.400000X1.150000*%
%ADD12C,3.200000*%
%ADD13R,1.600000X1.400000*%
%ADD14R,1.500000X1.000000*%
%ADD15C,2.000000*%
%ADD16R,1.600000X1.600000*%
%ADD17O,1.600000X1.600000*%
%ADD18O,1.700000X1.700000*%
%ADD19R,1.700000X1.700000*%
%ADD20R,2.000000X4.500000*%
%ADD21C,1.440000*%
%ADD22R,1.800000X1.000000*%
%ADD23C,3.000000*%
%ADD24O,1.800000X2.600000*%
%ADD25R,1.800000X2.600000*%
%ADD26R,2.200000X1.200000*%
%ADD27R,6.400000X5.800000*%
%ADD28RoundRect,0.243750X-0.243750X-0.456250X0.243750X-0.456250X0.243750X0.456250X-0.243750X0.456250X0*%
%ADD29R,3.000000X3.000000*%
%ADD30RoundRect,0.500000X0.500000X-1.750000X0.500000X1.750000X-0.500000X1.750000X-0.500000X-1.750000X0*%
%ADD31RoundRect,0.500000X1.500000X0.500000X-1.500000X0.500000X-1.500000X-0.500000X1.500000X-0.500000X0*%
G04 APERTURE END LIST*
D10*
%TO.C,C20*%
X30392000Y33401000D03*
X32092000Y33401000D03*
%TD*%
%TO.C,C19*%
X60872000Y16891000D03*
X62572000Y16891000D03*
%TD*%
%TO.C,C18*%
X45632000Y8636000D03*
X47332000Y8636000D03*
%TD*%
%TO.C,C17*%
X44362000Y17526000D03*
X46062000Y17526000D03*
%TD*%
%TO.C,C16*%
X14302000Y16256000D03*
X16002000Y16256000D03*
%TD*%
%TO.C,C15*%
X13882000Y9906000D03*
X15582000Y9906000D03*
%TD*%
%TO.C,C14*%
X30392000Y8636000D03*
X32092000Y8636000D03*
%TD*%
%TO.C,C13*%
X45417000Y25781000D03*
X47117000Y25781000D03*
%TD*%
%TO.C,C12*%
X60657000Y25146000D03*
X62357000Y25146000D03*
%TD*%
%TO.C,C11*%
X60837000Y33176000D03*
X62537000Y33176000D03*
%TD*%
%TO.C,C10*%
X30177000Y25146000D03*
X31877000Y25146000D03*
%TD*%
%TO.C,C9*%
X60657000Y8636000D03*
X62357000Y8636000D03*
%TD*%
%TO.C,C8*%
X30177000Y18161000D03*
X31877000Y18161000D03*
%TD*%
D11*
%TO.C,R2*%
X136017000Y30646000D03*
X136017000Y32346000D03*
%TD*%
%TO.C,R11*%
X78842000Y17466000D03*
X78842000Y19166000D03*
%TD*%
D12*
%TO.C,H4*%
X135752000Y5796000D03*
%TD*%
D13*
%TO.C,SW1*%
X133032000Y43906000D03*
X125032000Y43906000D03*
X133032000Y39406000D03*
X125032000Y39406000D03*
%TD*%
D11*
%TO.C,R3*%
X99822000Y58801000D03*
X99822000Y57101000D03*
%TD*%
D10*
%TO.C,R4*%
X109552000Y32766000D03*
X111252000Y32766000D03*
%TD*%
D13*
%TO.C,SW3*%
X123127000Y74966000D03*
X131127000Y74966000D03*
X123127000Y79466000D03*
X131127000Y79466000D03*
%TD*%
D14*
%TO.C,D2*%
X69932000Y31496000D03*
X69932000Y34696000D03*
X65032000Y31496000D03*
X65032000Y34696000D03*
%TD*%
D13*
%TO.C,SW2*%
X125032000Y47661000D03*
X133032000Y47661000D03*
X125032000Y52161000D03*
X133032000Y52161000D03*
%TD*%
D11*
%TO.C,R9*%
X118152000Y81696000D03*
X118152000Y79996000D03*
%TD*%
D10*
%TO.C,R5*%
X105322000Y36576000D03*
X107022000Y36576000D03*
%TD*%
%TO.C,C4*%
X128152000Y58796000D03*
X129852000Y58796000D03*
%TD*%
D14*
%TO.C,D7*%
X39452000Y31496000D03*
X39452000Y34696000D03*
X34552000Y31496000D03*
X34552000Y34696000D03*
%TD*%
D15*
%TO.C,TP6*%
X135352000Y49796000D03*
%TD*%
D14*
%TO.C,D8*%
X39452000Y23876000D03*
X39452000Y27076000D03*
X34552000Y23876000D03*
X34552000Y27076000D03*
%TD*%
D10*
%TO.C,R1*%
X101307000Y62611000D03*
X99607000Y62611000D03*
%TD*%
D11*
%TO.C,R8*%
X122552000Y49046000D03*
X122552000Y47346000D03*
%TD*%
D16*
%TO.C,U2*%
X115687000Y40396000D03*
D17*
X115687000Y42936000D03*
X115687000Y45476000D03*
X115687000Y48016000D03*
X115687000Y50556000D03*
X115687000Y53096000D03*
X115687000Y55636000D03*
X115687000Y58176000D03*
X115687000Y60716000D03*
X115687000Y63256000D03*
X115687000Y65796000D03*
X115687000Y68336000D03*
X115687000Y70876000D03*
X115687000Y73416000D03*
X108067000Y73416000D03*
X108067000Y70876000D03*
X108067000Y68336000D03*
X108067000Y65796000D03*
X108067000Y63256000D03*
X108067000Y60716000D03*
X108067000Y58176000D03*
X108067000Y55636000D03*
X108067000Y53096000D03*
X108067000Y50556000D03*
X108067000Y48016000D03*
X108067000Y45476000D03*
X108067000Y42936000D03*
X108067000Y40396000D03*
%TD*%
D10*
%TO.C,C3*%
X117602000Y30226000D03*
X115902000Y30226000D03*
%TD*%
%TO.C,C6*%
X88647000Y38176000D03*
X86947000Y38176000D03*
%TD*%
D11*
%TO.C,R12*%
X80152000Y12696000D03*
X80152000Y14396000D03*
%TD*%
D18*
%TO.C,J1*%
X103632000Y18161000D03*
X103632000Y20701000D03*
X103632000Y23241000D03*
X103632000Y25781000D03*
X103632000Y28321000D03*
D19*
X103632000Y30861000D03*
%TD*%
D13*
%TO.C,SW5*%
X133032000Y35651000D03*
X125032000Y35651000D03*
X133032000Y31151000D03*
X125032000Y31151000D03*
%TD*%
D14*
%TO.C,D11*%
X39452000Y8636000D03*
X39452000Y11836000D03*
X34552000Y8636000D03*
X34552000Y11836000D03*
%TD*%
%TO.C,D10*%
X39452000Y16256000D03*
X39452000Y19456000D03*
X34552000Y16256000D03*
X34552000Y19456000D03*
%TD*%
D11*
%TO.C,R10*%
X134752000Y76646000D03*
X134752000Y74946000D03*
%TD*%
D14*
%TO.C,D12*%
X24212000Y8636000D03*
X24212000Y11836000D03*
X19312000Y8636000D03*
X19312000Y11836000D03*
%TD*%
D15*
%TO.C,TP4*%
X99152000Y76796000D03*
%TD*%
D20*
%TO.C,Y1*%
X123552000Y57946000D03*
X123552000Y66446000D03*
%TD*%
D13*
%TO.C,SW4*%
X107252000Y80046000D03*
X115252000Y80046000D03*
X107252000Y84546000D03*
X115252000Y84546000D03*
%TD*%
D21*
%TO.C,RV1*%
X21067000Y85471000D03*
X18527000Y82931000D03*
X21067000Y80391000D03*
%TD*%
D22*
%TO.C,Y2*%
X94082000Y11946000D03*
X94082000Y9446000D03*
%TD*%
D12*
%TO.C,H2*%
X135752000Y85796000D03*
%TD*%
D15*
%TO.C,TP5*%
X136352000Y46796000D03*
%TD*%
D14*
%TO.C,D13*%
X19312000Y19456000D03*
X19312000Y16256000D03*
X24212000Y19456000D03*
X24212000Y16256000D03*
%TD*%
D12*
%TO.C,H3*%
X5752000Y5796000D03*
%TD*%
D23*
%TO.C,DS1*%
X89062000Y74158500D03*
X89061480Y43157800D03*
X14062900Y43157800D03*
X14062900Y74158500D03*
D24*
X57662000Y74158500D03*
X55122000Y74158500D03*
X52582000Y74158500D03*
X50042000Y74158500D03*
X47502000Y74158500D03*
X44962000Y74158500D03*
X42422000Y74158500D03*
X39882000Y74158500D03*
X37342000Y74158500D03*
X34802000Y74158500D03*
X32262000Y74158500D03*
X29722000Y74158500D03*
X27182000Y74158500D03*
X24642000Y74158500D03*
X22102000Y74158500D03*
D25*
X19562000Y74158500D03*
%TD*%
D15*
%TO.C,TP1*%
X95752000Y62596000D03*
%TD*%
D14*
%TO.C,D5*%
X69932000Y8636000D03*
X69932000Y11836000D03*
X65032000Y8636000D03*
X65032000Y11836000D03*
%TD*%
D26*
%TO.C,U3*%
X86137000Y35376000D03*
D27*
X92437000Y33096000D03*
D26*
X86137000Y30816000D03*
%TD*%
D14*
%TO.C,D4*%
X69932000Y16256000D03*
X69932000Y19456000D03*
X65032000Y16256000D03*
X65032000Y19456000D03*
%TD*%
D12*
%TO.C,H1*%
X5752000Y85796000D03*
%TD*%
D14*
%TO.C,D14*%
X49792000Y19456000D03*
X49792000Y16256000D03*
X54692000Y19456000D03*
X54692000Y16256000D03*
%TD*%
D16*
%TO.C,U1*%
X90262000Y9436000D03*
D17*
X90262000Y11976000D03*
X90262000Y14516000D03*
X90262000Y17056000D03*
X82642000Y17056000D03*
X82642000Y14516000D03*
X82642000Y11976000D03*
X82642000Y9436000D03*
%TD*%
D11*
%TO.C,R6*%
X56752000Y77946000D03*
X56752000Y79646000D03*
%TD*%
D14*
%TO.C,D9*%
X54692000Y8636000D03*
X54692000Y11836000D03*
X49792000Y8636000D03*
X49792000Y11836000D03*
%TD*%
D15*
%TO.C,TP3*%
X121352000Y71196000D03*
%TD*%
D28*
%TO.C,D1*%
X103662000Y62611000D03*
X105537000Y62611000D03*
%TD*%
D11*
%TO.C,R7*%
X122047000Y43561000D03*
X122047000Y45261000D03*
%TD*%
%TO.C,C2*%
X101092000Y81446000D03*
X101092000Y83146000D03*
%TD*%
D10*
%TO.C,C7*%
X86692000Y27051000D03*
X88392000Y27051000D03*
%TD*%
D14*
%TO.C,D3*%
X69932000Y23876000D03*
X69932000Y27076000D03*
X65032000Y23876000D03*
X65032000Y27076000D03*
%TD*%
%TO.C,D6*%
X54692000Y23876000D03*
X54692000Y27076000D03*
X49792000Y23876000D03*
X49792000Y27076000D03*
%TD*%
D11*
%TO.C,C1*%
X104267000Y59016000D03*
X104267000Y57316000D03*
%TD*%
D10*
%TO.C,C5*%
X127902000Y66796000D03*
X129602000Y66796000D03*
%TD*%
D29*
%TO.C,BT1*%
X108352000Y15796000D03*
D23*
X128842000Y15796000D03*
%TD*%
D30*
%TO.C,J2*%
X82717000Y33096000D03*
D31*
X80417000Y27796000D03*
X76717000Y30296000D03*
%TD*%
D19*
%TO.C,J3*%
X80477000Y80646000D03*
D18*
X80477000Y83186000D03*
X77937000Y80646000D03*
X77937000Y83186000D03*
X75397000Y80646000D03*
X75397000Y83186000D03*
%TD*%
M02*
