%TF.GenerationSoftware,KiCad,Pcbnew,(6.0.6)*%
%TF.CreationDate,2022-07-23T16:49:30-07:00*%
%TF.ProjectId,HPS-Rect-Clock,4850532d-5265-4637-942d-436c6f636b2e,rev?*%
%TF.SameCoordinates,PX4b93a80PY8b0aba0*%
%TF.FileFunction,Paste,Top*%
%TF.FilePolarity,Positive*%
%FSLAX46Y46*%
G04 Gerber Fmt 4.6, Leading zero omitted, Abs format (unit mm)*
G04 Created by KiCad (PCBNEW (6.0.6)) date 2022-07-23 16:49:30*
%MOMM*%
%LPD*%
G01*
G04 APERTURE LIST*
G04 Aperture macros list*
%AMRoundRect*
0 Rectangle with rounded corners*
0 $1 Rounding radius*
0 $2 $3 $4 $5 $6 $7 $8 $9 X,Y pos of 4 corners*
0 Add a 4 corners polygon primitive as box body*
4,1,4,$2,$3,$4,$5,$6,$7,$8,$9,$2,$3,0*
0 Add four circle primitives for the rounded corners*
1,1,$1+$1,$2,$3*
1,1,$1+$1,$4,$5*
1,1,$1+$1,$6,$7*
1,1,$1+$1,$8,$9*
0 Add four rect primitives between the rounded corners*
20,1,$1+$1,$2,$3,$4,$5,0*
20,1,$1+$1,$4,$5,$6,$7,0*
20,1,$1+$1,$6,$7,$8,$9,0*
20,1,$1+$1,$8,$9,$2,$3,0*%
G04 Aperture macros list end*
%ADD10R,1.400000X1.150000*%
%ADD11R,1.600000X1.400000*%
%ADD12R,1.150000X1.400000*%
%ADD13R,1.500000X1.000000*%
%ADD14R,2.000000X4.500000*%
%ADD15R,1.800000X1.000000*%
%ADD16R,3.050000X2.750000*%
%ADD17R,2.200000X1.200000*%
%ADD18RoundRect,0.243750X-0.243750X-0.456250X0.243750X-0.456250X0.243750X0.456250X-0.243750X0.456250X0*%
G04 APERTURE END LIST*
D10*
%TO.C,R2*%
X136017000Y30646000D03*
X136017000Y32346000D03*
%TD*%
%TO.C,R11*%
X78842000Y17466000D03*
X78842000Y19166000D03*
%TD*%
D11*
%TO.C,SW1*%
X125032000Y43906000D03*
X133032000Y43906000D03*
X125032000Y39406000D03*
X133032000Y39406000D03*
%TD*%
D10*
%TO.C,R3*%
X99822000Y58801000D03*
X99822000Y57101000D03*
%TD*%
D12*
%TO.C,R4*%
X109552000Y32766000D03*
X111252000Y32766000D03*
%TD*%
%TO.C,C20*%
X30392000Y33401000D03*
X32092000Y33401000D03*
%TD*%
%TO.C,C13*%
X45417000Y25781000D03*
X47117000Y25781000D03*
%TD*%
D11*
%TO.C,SW3*%
X131127000Y74966000D03*
X123127000Y74966000D03*
X131127000Y79466000D03*
X123127000Y79466000D03*
%TD*%
D13*
%TO.C,D2*%
X69932000Y31496000D03*
X69932000Y34696000D03*
X65032000Y34696000D03*
X65032000Y31496000D03*
%TD*%
D11*
%TO.C,SW2*%
X133032000Y47661000D03*
X125032000Y47661000D03*
X133032000Y52161000D03*
X125032000Y52161000D03*
%TD*%
D10*
%TO.C,R9*%
X118152000Y81696000D03*
X118152000Y79996000D03*
%TD*%
D12*
%TO.C,C11*%
X60837000Y33176000D03*
X62537000Y33176000D03*
%TD*%
%TO.C,R5*%
X105322000Y36576000D03*
X107022000Y36576000D03*
%TD*%
%TO.C,C4*%
X128152000Y58796000D03*
X129852000Y58796000D03*
%TD*%
D13*
%TO.C,D7*%
X39452000Y31496000D03*
X39452000Y34696000D03*
X34552000Y34696000D03*
X34552000Y31496000D03*
%TD*%
%TO.C,D8*%
X39452000Y23876000D03*
X39452000Y27076000D03*
X34552000Y27076000D03*
X34552000Y23876000D03*
%TD*%
D12*
%TO.C,R1*%
X101307000Y62611000D03*
X99607000Y62611000D03*
%TD*%
D10*
%TO.C,R8*%
X122552000Y49046000D03*
X122552000Y47346000D03*
%TD*%
D12*
%TO.C,C3*%
X117602000Y30226000D03*
X115902000Y30226000D03*
%TD*%
%TO.C,C6*%
X88647000Y38176000D03*
X86947000Y38176000D03*
%TD*%
%TO.C,C8*%
X30177000Y18161000D03*
X31877000Y18161000D03*
%TD*%
D10*
%TO.C,R12*%
X80152000Y12696000D03*
X80152000Y14396000D03*
%TD*%
D11*
%TO.C,SW5*%
X125032000Y35651000D03*
X133032000Y35651000D03*
X125032000Y31151000D03*
X133032000Y31151000D03*
%TD*%
D13*
%TO.C,D11*%
X39452000Y8636000D03*
X39452000Y11836000D03*
X34552000Y11836000D03*
X34552000Y8636000D03*
%TD*%
%TO.C,D10*%
X39452000Y16256000D03*
X39452000Y19456000D03*
X34552000Y19456000D03*
X34552000Y16256000D03*
%TD*%
D10*
%TO.C,R10*%
X134752000Y76646000D03*
X134752000Y74946000D03*
%TD*%
D13*
%TO.C,D12*%
X24212000Y8636000D03*
X24212000Y11836000D03*
X19312000Y11836000D03*
X19312000Y8636000D03*
%TD*%
D12*
%TO.C,C9*%
X60657000Y8636000D03*
X62357000Y8636000D03*
%TD*%
D14*
%TO.C,Y1*%
X123552000Y57946000D03*
X123552000Y66446000D03*
%TD*%
D11*
%TO.C,SW4*%
X115252000Y80046000D03*
X107252000Y80046000D03*
X115252000Y84546000D03*
X107252000Y84546000D03*
%TD*%
D15*
%TO.C,Y2*%
X94082000Y11946000D03*
X94082000Y9446000D03*
%TD*%
D12*
%TO.C,C19*%
X60872000Y16891000D03*
X62572000Y16891000D03*
%TD*%
%TO.C,C16*%
X14302000Y16256000D03*
X16002000Y16256000D03*
%TD*%
%TO.C,C14*%
X30392000Y8636000D03*
X32092000Y8636000D03*
%TD*%
D13*
%TO.C,D13*%
X19312000Y19456000D03*
X19312000Y16256000D03*
X24212000Y16256000D03*
X24212000Y19456000D03*
%TD*%
D12*
%TO.C,C17*%
X44362000Y17526000D03*
X46062000Y17526000D03*
%TD*%
D13*
%TO.C,D5*%
X69932000Y8636000D03*
X69932000Y11836000D03*
X65032000Y11836000D03*
X65032000Y8636000D03*
%TD*%
D16*
%TO.C,U3*%
X94112000Y34621000D03*
X90762000Y34621000D03*
X94112000Y31571000D03*
X90762000Y31571000D03*
D17*
X86137000Y35376000D03*
X86137000Y30816000D03*
%TD*%
D13*
%TO.C,D4*%
X69932000Y16256000D03*
X69932000Y19456000D03*
X65032000Y19456000D03*
X65032000Y16256000D03*
%TD*%
%TO.C,D14*%
X49792000Y19456000D03*
X49792000Y16256000D03*
X54692000Y16256000D03*
X54692000Y19456000D03*
%TD*%
D10*
%TO.C,R6*%
X56752000Y77946000D03*
X56752000Y79646000D03*
%TD*%
D13*
%TO.C,D9*%
X54692000Y8636000D03*
X54692000Y11836000D03*
X49792000Y11836000D03*
X49792000Y8636000D03*
%TD*%
D18*
%TO.C,D1*%
X103662000Y62611000D03*
X105537000Y62611000D03*
%TD*%
D12*
%TO.C,C12*%
X60657000Y25146000D03*
X62357000Y25146000D03*
%TD*%
D10*
%TO.C,R7*%
X122047000Y43561000D03*
X122047000Y45261000D03*
%TD*%
%TO.C,C2*%
X101092000Y81446000D03*
X101092000Y83146000D03*
%TD*%
D12*
%TO.C,C7*%
X86692000Y27051000D03*
X88392000Y27051000D03*
%TD*%
D13*
%TO.C,D3*%
X69932000Y23876000D03*
X69932000Y27076000D03*
X65032000Y27076000D03*
X65032000Y23876000D03*
%TD*%
%TO.C,D6*%
X54692000Y23876000D03*
X54692000Y27076000D03*
X49792000Y27076000D03*
X49792000Y23876000D03*
%TD*%
D12*
%TO.C,C15*%
X13882000Y9906000D03*
X15582000Y9906000D03*
%TD*%
%TO.C,C10*%
X30177000Y25146000D03*
X31877000Y25146000D03*
%TD*%
D10*
%TO.C,C1*%
X104267000Y59016000D03*
X104267000Y57316000D03*
%TD*%
D12*
%TO.C,C18*%
X45632000Y8636000D03*
X47332000Y8636000D03*
%TD*%
%TO.C,C5*%
X127902000Y66796000D03*
X129602000Y66796000D03*
%TD*%
M02*
