%TF.GenerationSoftware,KiCad,Pcbnew,(6.0.6)*%
%TF.CreationDate,2022-07-23T16:49:30-07:00*%
%TF.ProjectId,HPS-Rect-Clock,4850532d-5265-4637-942d-436c6f636b2e,rev?*%
%TF.SameCoordinates,PX4b93a80PY8b0aba0*%
%TF.FileFunction,Legend,Bot*%
%TF.FilePolarity,Positive*%
%FSLAX46Y46*%
G04 Gerber Fmt 4.6, Leading zero omitted, Abs format (unit mm)*
G04 Created by KiCad (PCBNEW (6.0.6)) date 2022-07-23 16:49:30*
%MOMM*%
%LPD*%
G01*
G04 APERTURE LIST*
G04 Aperture macros list*
%AMRoundRect*
0 Rectangle with rounded corners*
0 $1 Rounding radius*
0 $2 $3 $4 $5 $6 $7 $8 $9 X,Y pos of 4 corners*
0 Add a 4 corners polygon primitive as box body*
4,1,4,$2,$3,$4,$5,$6,$7,$8,$9,$2,$3,0*
0 Add four circle primitives for the rounded corners*
1,1,$1+$1,$2,$3*
1,1,$1+$1,$4,$5*
1,1,$1+$1,$6,$7*
1,1,$1+$1,$8,$9*
0 Add four rect primitives between the rounded corners*
20,1,$1+$1,$2,$3,$4,$5,0*
20,1,$1+$1,$4,$5,$6,$7,0*
20,1,$1+$1,$6,$7,$8,$9,0*
20,1,$1+$1,$8,$9,$2,$3,0*%
G04 Aperture macros list end*
%ADD10C,0.150000*%
%ADD11C,0.120000*%
%ADD12C,3.200000*%
%ADD13C,2.000000*%
%ADD14R,1.600000X1.600000*%
%ADD15O,1.600000X1.600000*%
%ADD16R,1.700000X1.700000*%
%ADD17O,1.700000X1.700000*%
%ADD18C,1.440000*%
%ADD19C,3.000000*%
%ADD20R,1.800000X2.600000*%
%ADD21O,1.800000X2.600000*%
%ADD22R,3.000000X3.000000*%
%ADD23RoundRect,0.500000X0.500000X-1.750000X0.500000X1.750000X-0.500000X1.750000X-0.500000X-1.750000X0*%
%ADD24RoundRect,0.500000X1.500000X0.500000X-1.500000X0.500000X-1.500000X-0.500000X1.500000X-0.500000X0*%
G04 APERTURE END LIST*
D10*
%TO.C,BT1*%
X108937714Y10067429D02*
X108794857Y10019810D01*
X108747238Y9972191D01*
X108699619Y9876953D01*
X108699619Y9734096D01*
X108747238Y9638858D01*
X108794857Y9591239D01*
X108890095Y9543620D01*
X109271047Y9543620D01*
X109271047Y10543620D01*
X108937714Y10543620D01*
X108842476Y10496000D01*
X108794857Y10448381D01*
X108747238Y10353143D01*
X108747238Y10257905D01*
X108794857Y10162667D01*
X108842476Y10115048D01*
X108937714Y10067429D01*
X109271047Y10067429D01*
X108413904Y10543620D02*
X107842476Y10543620D01*
X108128190Y9543620D02*
X108128190Y10543620D01*
X106985333Y9543620D02*
X107556761Y9543620D01*
X107271047Y9543620D02*
X107271047Y10543620D01*
X107366285Y10400762D01*
X107461523Y10305524D01*
X107556761Y10257905D01*
X111673428Y15688858D02*
X110530571Y15688858D01*
X111102000Y15117429D02*
X111102000Y16260286D01*
%TO.C,J2*%
X79550333Y38643620D02*
X79550333Y37929334D01*
X79597952Y37786477D01*
X79693190Y37691239D01*
X79836047Y37643620D01*
X79931285Y37643620D01*
X79121761Y38548381D02*
X79074142Y38596000D01*
X78978904Y38643620D01*
X78740809Y38643620D01*
X78645571Y38596000D01*
X78597952Y38548381D01*
X78550333Y38453143D01*
X78550333Y38357905D01*
X78597952Y38215048D01*
X79169380Y37643620D01*
X78550333Y37643620D01*
%TO.C,J3*%
X82259380Y82249334D02*
X82973666Y82249334D01*
X83116523Y82296953D01*
X83211761Y82392191D01*
X83259380Y82535048D01*
X83259380Y82630286D01*
X82259380Y81868381D02*
X82259380Y81249334D01*
X82640333Y81582667D01*
X82640333Y81439810D01*
X82687952Y81344572D01*
X82735571Y81296953D01*
X82830809Y81249334D01*
X83068904Y81249334D01*
X83164142Y81296953D01*
X83211761Y81344572D01*
X83259380Y81439810D01*
X83259380Y81725524D01*
X83211761Y81820762D01*
X83164142Y81868381D01*
D11*
%TO.C,BT1*%
X106302000Y13296000D02*
X106302000Y18296000D01*
X109302000Y12746000D02*
X106852000Y12746000D01*
X106852000Y18846000D02*
X109302000Y18846000D01*
X110002000Y12276000D02*
G75*
G03*
X133615443Y16311991I11550000J3520000D01*
G01*
X109302000Y18846000D02*
G75*
G03*
X110006769Y19339485I0J750000D01*
G01*
X133615443Y15280009D02*
G75*
G03*
X110002000Y19316000I-12063443J515991D01*
G01*
X106852000Y18846000D02*
G75*
G03*
X106302000Y18296000I-1J-549999D01*
G01*
X106302000Y13296000D02*
G75*
G03*
X106852000Y12746000I549999J-1D01*
G01*
X110006769Y12252515D02*
G75*
G03*
X109302000Y12746000I-704769J-256515D01*
G01*
%TO.C,J2*%
X74717000Y37296000D02*
X74717000Y31346000D01*
X83717000Y37296000D02*
X74717000Y37296000D01*
X83717000Y26596000D02*
X74717000Y26596000D01*
X83717000Y37296000D02*
X83717000Y35346000D01*
X83717000Y26596000D02*
X83717000Y30846000D01*
X74717000Y26596000D02*
X74717000Y29346000D01*
X81417000Y35396000D02*
G75*
G03*
X76350755Y31712295I-2200000J-2300000D01*
G01*
X79217000Y29896000D02*
G75*
G03*
X81479742Y30833258I2J3199997D01*
G01*
%TO.C,J3*%
X79207000Y81916000D02*
X81807000Y81916000D01*
X81807000Y84516000D02*
X74067000Y84516000D01*
X79207000Y79316000D02*
X79207000Y81916000D01*
X80477000Y79316000D02*
X81807000Y79316000D01*
X79207000Y79316000D02*
X74067000Y79316000D01*
X81807000Y79316000D02*
X81807000Y80646000D01*
X81807000Y81916000D02*
X81807000Y84516000D01*
X74067000Y79316000D02*
X74067000Y84516000D01*
%TD*%
%LPC*%
D12*
%TO.C,H4*%
X135752000Y5796000D03*
%TD*%
D13*
%TO.C,TP6*%
X135352000Y49796000D03*
%TD*%
D14*
%TO.C,U2*%
X115687000Y40396000D03*
D15*
X115687000Y42936000D03*
X115687000Y45476000D03*
X115687000Y48016000D03*
X115687000Y50556000D03*
X115687000Y53096000D03*
X115687000Y55636000D03*
X115687000Y58176000D03*
X115687000Y60716000D03*
X115687000Y63256000D03*
X115687000Y65796000D03*
X115687000Y68336000D03*
X115687000Y70876000D03*
X115687000Y73416000D03*
X108067000Y73416000D03*
X108067000Y70876000D03*
X108067000Y68336000D03*
X108067000Y65796000D03*
X108067000Y63256000D03*
X108067000Y60716000D03*
X108067000Y58176000D03*
X108067000Y55636000D03*
X108067000Y53096000D03*
X108067000Y50556000D03*
X108067000Y48016000D03*
X108067000Y45476000D03*
X108067000Y42936000D03*
X108067000Y40396000D03*
%TD*%
D16*
%TO.C,J1*%
X103632000Y30861000D03*
D17*
X103632000Y28321000D03*
X103632000Y25781000D03*
X103632000Y23241000D03*
X103632000Y20701000D03*
X103632000Y18161000D03*
%TD*%
D13*
%TO.C,TP4*%
X99152000Y76796000D03*
%TD*%
D18*
%TO.C,RV1*%
X21067000Y85471000D03*
X18527000Y82931000D03*
X21067000Y80391000D03*
%TD*%
D12*
%TO.C,H2*%
X135752000Y85796000D03*
%TD*%
D13*
%TO.C,TP5*%
X136352000Y46796000D03*
%TD*%
D12*
%TO.C,H3*%
X5752000Y5796000D03*
%TD*%
D19*
%TO.C,DS1*%
X89062000Y74158500D03*
X89061480Y43157800D03*
X14062900Y43157800D03*
X14062900Y74158500D03*
D20*
X19562000Y74158500D03*
D21*
X22102000Y74158500D03*
X24642000Y74158500D03*
X27182000Y74158500D03*
X29722000Y74158500D03*
X32262000Y74158500D03*
X34802000Y74158500D03*
X37342000Y74158500D03*
X39882000Y74158500D03*
X42422000Y74158500D03*
X44962000Y74158500D03*
X47502000Y74158500D03*
X50042000Y74158500D03*
X52582000Y74158500D03*
X55122000Y74158500D03*
X57662000Y74158500D03*
%TD*%
D13*
%TO.C,TP1*%
X95752000Y62596000D03*
%TD*%
D12*
%TO.C,H1*%
X5752000Y85796000D03*
%TD*%
D14*
%TO.C,U1*%
X90262000Y9436000D03*
D15*
X90262000Y11976000D03*
X90262000Y14516000D03*
X90262000Y17056000D03*
X82642000Y17056000D03*
X82642000Y14516000D03*
X82642000Y11976000D03*
X82642000Y9436000D03*
%TD*%
D13*
%TO.C,TP3*%
X121352000Y71196000D03*
%TD*%
D22*
%TO.C,BT1*%
X108352000Y15796000D03*
D19*
X128842000Y15796000D03*
%TD*%
D23*
%TO.C,J2*%
X82717000Y33096000D03*
D24*
X80417000Y27796000D03*
X76717000Y30296000D03*
%TD*%
D16*
%TO.C,J3*%
X80477000Y80646000D03*
D17*
X80477000Y83186000D03*
X77937000Y80646000D03*
X77937000Y83186000D03*
X75397000Y80646000D03*
X75397000Y83186000D03*
%TD*%
M02*
