M48
; DRILL file {KiCad (6.0.6)} date Sat Jul 23 16:49:50 2022
; FORMAT={-:-/ absolute / inch / decimal}
; #@! TF.CreationDate,2022-07-23T16:49:50-07:00
; #@! TF.GenerationSoftware,Kicad,Pcbnew,(6.0.6)
; #@! TF.FileFunction,MixedPlating,1,2
FMAT,2
INCH
; #@! TA.AperFunction,Plated,PTH,ViaDrill
T1C0.0160
; #@! TA.AperFunction,Plated,PTH,ComponentDrill
T2C0.0315
; #@! TA.AperFunction,Plated,PTH,ComponentDrill
T3C0.0394
; #@! TA.AperFunction,Plated,PTH,ComponentDrill
T4C0.0472
; #@! TA.AperFunction,Plated,PTH,ComponentDrill
T5C0.0591
; #@! TA.AperFunction,Plated,PTH,ComponentDrill
T6C0.0984
; #@! TA.AperFunction,NonPlated,NPTH,ComponentDrill
T7C0.1260
%
G90
G05
T1
X0.43Y0.39
X0.455Y0.64
X0.6595Y0.7597
X1.0532Y0.3266
X1.0729Y1.9014
X1.08Y1.315
X1.08Y0.99
X1.08Y0.715
X1.13Y0.39
X1.1713Y2.0392
X1.28Y2.09
X1.6044Y1.1534
X1.6241Y0.8581
X1.6438Y0.6416
X1.655Y0.69
X1.6635Y0.3463
X1.73Y1.015
X1.805Y1.815
X1.8603Y0.7794
X2.254Y0.9369
X2.254Y0.3266
X2.28Y1.29
X2.28Y0.665
X2.3209Y1.0628
X2.3209Y0.7636
X2.8446Y0.9369
X2.8446Y0.6416
X2.8564Y1.2361
X2.8643Y0.3463
X2.9745Y1.5904
X3.0769Y2.5589
X3.132Y2.2991
X3.1385Y1.3901
X3.255Y0.89
X3.317Y0.9959
X3.33Y0.79
X3.5729Y1.5077
X3.691Y1.488
X3.754Y3.1731
X3.7619Y2.5983
X3.7776Y2.3148
X3.8013Y3.2203
X3.8013Y2.6928
X3.855Y2.39
X3.855Y1.69
X3.855Y0.89
X3.88Y3.2754
X3.905Y1.59
X3.905Y0.79
X3.9666Y0.9132
X3.9902Y1.425
X4.0139Y2.6219
X4.0139Y2.3227
X4.1005Y2.1888
X4.1083Y3.3306
X4.1083Y3.1494
X4.1083Y3.0392
X4.1713Y1.1967
X4.2265Y1.2912
X4.2265Y0.8187
X4.3288Y1.4408
X4.3446Y1.7794
X4.4233Y2.7872
X4.4233Y2.6534
X4.4627Y1.6849
X4.4627Y1.2912
X4.6202Y2.7164
X4.628Y3.0313
X4.6438Y3.3306
X4.6517Y1.9762
X4.6595Y2.5904
X4.6595Y1.7794
X4.6674Y2.9369
X4.8328Y1.5471
X4.8524Y3.2203
X4.8524Y1.3306
X4.9312Y2.1376
X5.128Y3.2203
X5.1871Y2.6219
X5.2028Y2.3148
X5.3249Y1.4093
X5.3446Y2.0589
X5.3446Y1.5471
T2
X0.7294Y3.265
X0.8294Y3.365
X0.8294Y3.165
X3.2536Y0.6715
X3.2536Y0.5715
X3.2536Y0.4715
X3.2536Y0.3715
X3.5536Y0.6715
X3.5536Y0.5715
X3.5536Y0.4715
X3.5536Y0.3715
X4.2546Y2.8904
X4.2546Y2.7904
X4.2546Y2.6904
X4.2546Y2.5904
X4.2546Y2.4904
X4.2546Y2.3904
X4.2546Y2.2904
X4.2546Y2.1904
X4.2546Y2.0904
X4.2546Y1.9904
X4.2546Y1.8904
X4.2546Y1.7904
X4.2546Y1.6904
X4.2546Y1.5904
X4.5546Y2.8904
X4.5546Y2.7904
X4.5546Y2.6904
X4.5546Y2.5904
X4.5546Y2.4904
X4.5546Y2.3904
X4.5546Y2.2904
X4.5546Y2.1904
X4.5546Y2.0904
X4.5546Y1.9904
X4.5546Y1.8904
X4.5546Y1.7904
X4.5546Y1.6904
X4.5546Y1.5904
T3
X2.9684Y3.275
X2.9684Y3.175
X3.0684Y3.275
X3.0684Y3.175
X3.1684Y3.275
X3.1684Y3.175
X3.7698Y2.4644
X3.9036Y3.0235
X4.08Y1.215
X4.08Y1.115
X4.08Y1.015
X4.08Y0.915
X4.08Y0.815
X4.08Y0.715
X4.7776Y2.803
X5.3288Y1.9605
X5.3682Y1.8424
T4
X0.7702Y2.9196
X0.8702Y2.9196
X0.9702Y2.9196
X1.0702Y2.9196
X1.1702Y2.9196
X1.2702Y2.9196
X1.3702Y2.9196
X1.4702Y2.9196
X1.5702Y2.9196
X1.6702Y2.9196
X1.7702Y2.9196
X1.8702Y2.9196
X1.9702Y2.9196
X2.0702Y2.9196
X2.1702Y2.9196
X2.2702Y2.9196
T5
X4.2658Y0.6219
X5.0725Y0.6219
T6
X0.5537Y2.9196
X0.5537Y1.6991
X3.5064Y1.6991
X3.5064Y2.9196
T7
X0.2265Y3.3778
X0.2265Y0.2282
X5.3446Y3.3778
X5.3446Y0.2282
T3
G00X3.0597Y1.1928
M15
G01X2.981Y1.1928
M16
G05
G00X3.2054Y1.0943
M15
G01X3.1267Y1.0943
M16
G05
G00X3.2566Y1.2538
M15
G01X3.2566Y1.3522
M16
G05
T0
M30
